<?xml version="1.0" encoding="UTF-8"?>
<svg xmlns="http://www.w3.org/2000/svg" xmlns:xlink="http://www.w3.org/1999/xlink" width="32" height="32" viewBox="0 0 32 32" version="1.1">
<defs>
<filter id="alpha" filterUnits="objectBoundingBox" x="0%" y="0%" width="100%" height="100%">
  <feColorMatrix type="matrix" in="SourceGraphic" values="0 0 0 0 1 0 0 0 0 1 0 0 0 0 1 0 0 0 1 0"/>
</filter>
<mask id="mask0">
  <g filter="url(#alpha)">
<rect x="0" y="0" width="32" height="32" style="fill:rgb(0%,0%,0%);fill-opacity:0.501961;stroke:none;"/>
  </g>
</mask>
<clipPath id="clip1">
  <rect x="0" y="0" width="32" height="32"/>
</clipPath>
<g id="surface5" clip-path="url(#clip1)">
<path style=" stroke:none;fill-rule:nonzero;fill:rgb(10.980392%,15.294118%,29.803922%);fill-opacity:1;" d="M 20.292969 16.53125 C 19.039062 17.027344 17.613281 17.332031 16 17.332031 L 16 23.332031 C 16.738281 23.332031 17.332031 22.738281 17.332031 22 L 17.332031 19.941406 C 18.363281 19.847656 19.328125 19.652344 20.234375 19.375 L 21.550781 21.394531 C 21.949219 22.011719 22.777344 22.1875 23.394531 21.785156 C 24.011719 21.382812 24.1875 20.558594 23.785156 19.941406 L 22.742188 18.335938 C 23.675781 17.84375 24.519531 17.269531 25.269531 16.660156 L 26.390625 17.78125 C 26.910156 18.300781 27.753906 18.300781 28.277344 17.78125 C 28.796875 17.261719 28.796875 16.417969 28.277344 15.894531 L 27.214844 14.832031 C 28.203125 13.753906 28.957031 12.6875 29.496094 11.824219 C 29.84375 11.261719 30.105469 10.78125 30.28125 10.4375 C 30.371094 10.265625 30.4375 10.125 30.484375 10.027344 C 30.503906 9.980469 30.523438 9.9375 30.535156 9.910156 L 30.550781 9.875 L 30.558594 9.859375 C 30.847656 9.183594 30.535156 8.398438 29.859375 8.109375 C 29.183594 7.816406 28.398438 8.132812 28.109375 8.808594 L 28.101562 8.824219 C 28.09375 8.839844 28.082031 8.863281 28.066406 8.902344 C 28.03125 8.972656 27.980469 9.082031 27.90625 9.226562 C 27.761719 9.511719 27.535156 9.925781 27.230469 10.414062 C 26.617188 11.398438 25.6875 12.679688 24.421875 13.867188 C 23.300781 14.917969 21.929688 15.886719 20.292969 16.53125 Z M 20.292969 16.53125 "/>
</g>
</defs>
<g id="surface1">
<path style=" stroke:none;fill-rule:evenodd;fill:rgb(10.980392%,15.294118%,29.803922%);fill-opacity:1;" d="M 3.890625 8.804688 C 3.601562 8.128906 2.816406 7.816406 2.140625 8.109375 C 1.464844 8.398438 1.152344 9.183594 1.441406 9.859375 L 1.445312 9.863281 L 1.449219 9.875 L 1.460938 9.902344 C 1.46875 9.925781 1.484375 9.957031 1.503906 9.996094 C 1.539062 10.078125 1.59375 10.191406 1.664062 10.332031 C 1.804688 10.609375 2.011719 11.003906 2.292969 11.472656 C 2.835938 12.390625 3.660156 13.605469 4.785156 14.832031 L 3.722656 15.894531 C 3.203125 16.414062 3.203125 17.261719 3.722656 17.78125 C 4.246094 18.300781 5.089844 18.300781 5.609375 17.78125 L 6.730469 16.660156 C 7.484375 17.269531 8.324219 17.84375 9.257812 18.335938 L 8.214844 19.9375 C 7.8125 20.554688 7.988281 21.382812 8.605469 21.785156 C 9.222656 22.1875 10.050781 22.011719 10.449219 21.394531 L 11.765625 19.375 C 12.667969 19.652344 13.632812 19.847656 14.667969 19.941406 L 14.667969 22 C 14.667969 22.734375 15.261719 23.332031 16 23.332031 L 16 17.332031 C 12.335938 17.332031 9.574219 15.734375 7.59375 13.882812 C 7.585938 13.871094 7.574219 13.859375 7.5625 13.851562 C 7.296875 13.601562 7.046875 13.347656 6.808594 13.09375 C 5.804688 12.011719 5.070312 10.925781 4.582031 10.109375 C 4.339844 9.703125 4.164062 9.367188 4.050781 9.136719 C 3.992188 9.023438 3.949219 8.933594 3.925781 8.878906 C 3.910156 8.851562 3.902344 8.828125 3.898438 8.816406 Z M 1.441406 9.859375 L 2.667969 9.332031 C 1.441406 9.859375 1.441406 9.859375 1.441406 9.859375 Z M 1.441406 9.859375 "/>
<use xlink:href="#surface5" mask="url(#mask0)"/>
</g>
</svg>
