<?xml version="1.0" encoding="UTF-8"?>
<svg xmlns="http://www.w3.org/2000/svg" xmlns:xlink="http://www.w3.org/1999/xlink" width="32" height="32" viewBox="0 0 32 32" version="1.1">
<defs>
<filter id="alpha" filterUnits="objectBoundingBox" x="0%" y="0%" width="100%" height="100%">
  <feColorMatrix type="matrix" in="SourceGraphic" values="0 0 0 0 1 0 0 0 0 1 0 0 0 0 1 0 0 0 1 0"/>
</filter>
<mask id="mask0">
  <g filter="url(#alpha)">
<rect x="0" y="0" width="32" height="32" style="fill:rgb(0%,0%,0%);fill-opacity:0.501961;stroke:none;"/>
  </g>
</mask>
<clipPath id="clip1">
  <rect x="0" y="0" width="32" height="32"/>
</clipPath>
<g id="surface5" clip-path="url(#clip1)">
<path style="fill:none;stroke-width:1.5;stroke-linecap:butt;stroke-linejoin:miter;stroke:rgb(10.980392%,15.294118%,29.803922%);stroke-opacity:1;stroke-miterlimit:4;" d="M 3.275391 15.295898 C 2.425781 14.191406 2.000977 13.640625 2.000977 12 C 2.000977 10.359375 2.425781 9.808594 3.275391 8.704102 C 4.97168 6.500977 7.819336 3.999023 12 3.999023 C 16.180664 3.999023 19.02832 6.500977 20.724609 8.704102 C 21.574219 9.808594 21.999023 10.359375 21.999023 12 C 21.999023 13.640625 21.574219 14.191406 20.724609 15.295898 C 19.02832 17.499023 16.180664 20.000977 12 20.000977 C 7.819336 20.000977 4.97168 17.499023 3.275391 15.295898 Z M 3.275391 15.295898 " transform="matrix(1.333333,0,0,1.333333,0,0)"/>
</g>
</defs>
<g id="surface1">
<use xlink:href="#surface5" mask="url(#mask0)"/>
<path style="fill:none;stroke-width:1.5;stroke-linecap:butt;stroke-linejoin:miter;stroke:rgb(10.980392%,15.294118%,29.803922%);stroke-opacity:1;stroke-miterlimit:4;" d="M 15 12 C 15 13.658203 13.658203 15 12 15 C 10.341797 15 9 13.658203 9 12 C 9 10.341797 10.341797 9 12 9 C 13.658203 9 15 10.341797 15 12 Z M 15 12 " transform="matrix(1.333333,0,0,1.333333,0,0)"/>
</g>
</svg>
